<svg id="Layer_1" data-name="Layer 1" xmlns="http://www.w3.org/2000/svg" viewBox="0 0 185.73 39.66"><path d="M337.41,213.35a6.6,6.6,0,0,1-4.86-1.72,6.67,6.67,0,0,1-1.74-4.94v-8.16h3.37v8c0,2.61,1.09,3.91,3.25,3.91a3,3,0,0,0,2.42-.95,4.43,4.43,0,0,0,.83-3v-8H344v8.16a6.67,6.67,0,0,1-1.74,4.94,6.6,6.6,0,0,1-4.86,1.72m17.25,0a8.43,8.43,0,0,1-4-1,7.25,7.25,0,0,1-2.83-2.69,7.82,7.82,0,0,1,0-7.76,7.25,7.25,0,0,1,2.83-2.69,9,9,0,0,1,7.48-.3,6.93,6.93,0,0,1,2.57,1.92l-2.17,2a4.67,4.67,0,0,0-3.66-1.7,4.85,4.85,0,0,0-2.42.59,4.22,4.22,0,0,0-1.65,1.65,5.25,5.25,0,0,0-.6,2.42,5.18,5.18,0,0,0,.6,2.41,4.25,4.25,0,0,0,1.65,1.66,4.87,4.87,0,0,0,2.42.59,4.64,4.64,0,0,0,3.66-1.73l2.17,2a6.83,6.83,0,0,1-2.58,1.94,8.64,8.64,0,0,1-3.44.66Zm17.85-9.53a2.28,2.28,0,0,0-.79-1.88,3.53,3.53,0,0,0-2.31-.66h-2.75v5.08h2.75a3.44,3.44,0,0,0,2.31-.67,2.29,2.29,0,0,0,.79-1.87Zm.07,9.29-2.81-4.06h-3.11v4h-3.37V198.53h6.31a8.09,8.09,0,0,1,3.36.65,5,5,0,0,1,2.2,1.83,5.15,5.15,0,0,1,.77,2.81,4.75,4.75,0,0,1-3,4.6l3.27,4.68Zm14.89-5.69-2.31-5.58-2.31,5.58Zm1.06,2.56h-6.76l-1.29,3.13H377l6.5-14.58h3.33l6.52,14.57h-3.54Zm9-8.7h-4.66v-2.75h12.7v2.75h-4.67V213.1h-3.37Zm17,9.2a4.62,4.62,0,0,0,2.33-.59,4.26,4.26,0,0,0,1.64-1.65,5.24,5.24,0,0,0,.59-2.42,5.17,5.17,0,0,0-.59-2.41,4.22,4.22,0,0,0-1.64-1.66,4.83,4.83,0,0,0-2.33-.59,4.89,4.89,0,0,0-2.33.59,4.2,4.2,0,0,0-1.63,1.66,5.18,5.18,0,0,0-.6,2.41,5.25,5.25,0,0,0,.6,2.42,4.24,4.24,0,0,0,1.63,1.65,4.64,4.64,0,0,0,2.33.59Zm0,2.88a8.57,8.57,0,0,1-4.09-1,7.32,7.32,0,0,1-2.85-2.7,7.75,7.75,0,0,1,0-7.72,7.32,7.32,0,0,1,2.85-2.7,9,9,0,0,1,8.17,0,7.51,7.51,0,0,1,2.88,2.74,7.41,7.41,0,0,1,0,7.64,7.51,7.51,0,0,1-2.88,2.74,8.38,8.38,0,0,1-4.08,1Zm20.08-9.54a2.28,2.28,0,0,0-.79-1.88,3.5,3.5,0,0,0-2.31-.66h-2.75v5.08h2.75a3.5,3.5,0,0,0,2.31-.66,2.32,2.32,0,0,0,.79-1.88Zm.07,9.29-2.81-4.06h-3.11v4h-3.37V198.53h6.31a8.09,8.09,0,0,1,3.36.65,5,5,0,0,1,2.2,1.83,5.07,5.07,0,0,1,.77,2.81,4.75,4.75,0,0,1-3,4.6l3.27,4.68Zm6.36-14.58h3.37v14.58h-3.37Zm-122.87,0h3.37v11.83h7.31v2.75H318.2Z" transform="translate(-258.71 -185.82)" style="fill:#0c1523;fill-rule:evenodd"/><path d="M280.16,214.64l-2.52,2.51,8.33,8.33,5.21-5.21-8.33-8.33Z" transform="translate(-258.71 -185.82)" style="fill:#ffcd05;fill-rule:evenodd"/><path d="M269.74,214.64l-2.7-2.7-8.33,8.33,5.21,5.21,8.33-8.33Z" transform="translate(-258.71 -185.82)" style="fill:#ffcd05;fill-rule:evenodd"/><path d="M275,204l-11-11-5.21,5.21,11,11,5.21,5.21,5.21-5.21L298.37,191l-5.21-5.21Z" transform="translate(-258.71 -185.82)" style="fill:#ed2224;fill-rule:evenodd"/><path d="M275,188a4.43,4.43,0,0,1,2.47.75,4.35,4.35,0,0,1,1.63,2,4.44,4.44,0,0,1,.26,2.57,4.51,4.51,0,0,1-1.22,2.28,4.47,4.47,0,0,1-4.84,1A4.44,4.44,0,0,1,275,188Z" transform="translate(-258.71 -185.82)" style="fill:#ffcd05;fill-rule:evenodd"/></svg>